<svg width="1024" height="1024" viewBox="0 0 1024 1024" fill="none" xmlns="http://www.w3.org/2000/svg">
  <defs>
    <!-- Background Gradient: Deep Obsidian & Midnight Sapphire -->
    <radialGradient id="spaceGlow" cx="50%" cy="38%" r="65%" fx="50%" fy="30%">
      <stop offset="0%" stop-color="#1e293b" />
      <stop offset="45%" stop-color="#0f172a" />
      <stop offset="80%" stop-color="#070b16" />
      <stop offset="100%" stop-color="#02040a" />
    </radialGradient>

    <!-- Squircle Metallic & Electric Cyan Bevel Border -->
    <linearGradient id="bevelBorder" x1="0" y1="0" x2="1024" y2="1024" gradientUnits="userSpaceOnUse">
      <stop offset="0%" stop-color="#38bdf8" stop-opacity="0.9" />
      <stop offset="25%" stop-color="#818cf8" stop-opacity="0.5" />
      <stop offset="50%" stop-color="#0ea5e9" stop-opacity="0.3" />
      <stop offset="75%" stop-color="#f59e0b" stop-opacity="0.6" />
      <stop offset="100%" stop-color="#fbbf24" stop-opacity="0.95" />
    </linearGradient>

    <linearGradient id="innerRim" x1="0" y1="0" x2="0" y2="1024" gradientUnits="userSpaceOnUse">
      <stop offset="0%" stop-color="#ffffff" stop-opacity="0.25" />
      <stop offset="50%" stop-color="#ffffff" stop-opacity="0.03" />
      <stop offset="100%" stop-color="#000000" stop-opacity="0.6" />
    </linearGradient>

    <!-- Solar Cell Silicon Wafer Gradients (Anti-Reflective Optical Coating) -->
    <linearGradient id="waferMain" x1="160" y1="180" x2="860" y2="860" gradientUnits="userSpaceOnUse">
      <stop offset="0%" stop-color="#0284c7" />
      <stop offset="30%" stop-color="#0369a1" />
      <stop offset="65%" stop-color="#075985" />
      <stop offset="100%" stop-color="#0c4a6e" />
    </linearGradient>

    <linearGradient id="waferHighlight" x1="200" y1="200" x2="800" y2="500" gradientUnits="userSpaceOnUse">
      <stop offset="0%" stop-color="#38bdf8" />
      <stop offset="40%" stop-color="#0284c7" />
      <stop offset="100%" stop-color="#0369a1" />
    </linearGradient>

    <linearGradient id="waferDeep" x1="200" y1="500" x2="800" y2="900" gradientUnits="userSpaceOnUse">
      <stop offset="0%" stop-color="#0369a1" />
      <stop offset="60%" stop-color="#075985" />
      <stop offset="100%" stop-color="#082f49" />
    </linearGradient>

    <!-- Precision Gold Busbars & High Voltage Traces -->
    <linearGradient id="goldBusbar" x1="0" y1="0" x2="1" y2="1">
      <stop offset="0%" stop-color="#fffbeb" />
      <stop offset="25%" stop-color="#fef08a" />
      <stop offset="55%" stop-color="#f59e0b" />
      <stop offset="85%" stop-color="#d97706" />
      <stop offset="100%" stop-color="#b45309" />
    </linearGradient>

    <!-- Electric Energy Pulse Vector -->
    <linearGradient id="energyPulse" x1="0" y1="0" x2="1" y2="1">
      <stop offset="0%" stop-color="#ffffff" />
      <stop offset="30%" stop-color="#fef08a" />
      <stop offset="70%" stop-color="#f59e0b" />
      <stop offset="100%" stop-color="#ef4444" />
    </linearGradient>

    <!-- Glass Module Reflection Sheen -->
    <linearGradient id="glassSheen" x1="0" y1="0" x2="1024" y2="1024" gradientUnits="userSpaceOnUse">
      <stop offset="0%" stop-color="#ffffff" stop-opacity="0.32" />
      <stop offset="35%" stop-color="#ffffff" stop-opacity="0.08" />
      <stop offset="55%" stop-color="#ffffff" stop-opacity="0" />
    </linearGradient>

    <!-- Ambient Blue Energy Core Glow -->
    <radialGradient id="coreAura" cx="50%" cy="50%" r="50%">
      <stop offset="0%" stop-color="#38bdf8" stop-opacity="0.5" />
      <stop offset="50%" stop-color="#0284c7" stop-opacity="0.25" />
      <stop offset="100%" stop-color="#0284c7" stop-opacity="0" />
    </radialGradient>

    <!-- Deep Elevation Shadow Filter -->
    <filter id="elevatedShadow" x="-20%" y="-20%" width="140%" height="140%">
      <feDropShadow dx="0" dy="28" stdDeviation="32" flood-color="#000000" flood-opacity="0.75" />
      <feDropShadow dx="0" dy="8" stdDeviation="12" flood-color="#0284c7" flood-opacity="0.35" />
    </filter>

    <filter id="goldGlow" x="-30%" y="-30%" width="160%" height="160%">
      <feGaussianBlur stdDeviation="7" result="glow" />
      <feComposite in="SourceGraphic" in2="glow" operator="over" />
    </filter>

    <filter id="intenseGlow" x="-50%" y="-50%" width="200%" height="200%">
      <feGaussianBlur stdDeviation="14" result="blur" />
      <feComposite in="SourceGraphic" in2="blur" operator="over" />
    </filter>
  </defs>

  <!-- Base Icon Squircle (macOS / iOS Super-ellipse curvature) -->
  <g>
    <!-- Background Canvas -->
    <rect x="36" y="36" width="952" height="952" rx="224" fill="url(#spaceGlow)" />
    <rect x="36" y="36" width="952" height="952" rx="224" fill="url(#innerRim)" />
    <!-- High-Precision Edge Bevel -->
    <rect x="36" y="36" width="952" height="952" rx="224" stroke="url(#bevelBorder)" stroke-width="8" />
  </g>

  <!-- Ambient Energy Halo behind Central Isometric Module -->
  <circle cx="512" cy="480" r="360" fill="url(#coreAura)" />

  <!-- Diagonal Doppelglas Sheen (Optical Anti-Reflective Glare) -->
  <path d="M 36 280 C 36 145, 145 36, 280 36 L 780 36 C 440 36, 120 400, 36 820 Z" fill="url(#glassSheen)" />

  <!-- CENTRAL ISOMETRIC SOLAR ARRAY (High-Tech Monocrystalline PV Matrix) -->
  <g filter="url(#elevatedShadow)" transform="translate(512, 492)">
    
    <!-- Heavy Anodized Aluminum Outer Frame (Chassis with Aerospace Bevel) -->
    <!-- Isometric Diamond Frame -->
    <polygon points="0,-330 380,-110 380,170 0,390 -380,170 -380,-110" fill="#0b1329" stroke="#1e293b" stroke-width="14" stroke-linejoin="round" />
    <polygon points="0,-314 362,-100 362,160 0,374 -362,160 -362,-100" fill="#030712" stroke="#38bdf8" stroke-opacity="0.35" stroke-width="3.5" stroke-linejoin="round" />

    <!-- 4-CELL MONOCRYSTALLINE SILICON MATRIX -->
    
    <!-- Cell 1: Top-Left (North-West) -->
    <g>
      <polygon points="-10,-12 -10,-300 -346,-96 -10,-12" fill="url(#waferHighlight)" stroke="#0c4a6e" stroke-width="2.5"/>
      <!-- Anti-reflection edge -->
      <polygon points="-10,-12 -180,-156 -180,-10 -10,-12" fill="url(#waferMain)" opacity="0.6"/>
      <!-- Multi-Busbar Silver Micro-Fingers -->
      <line x1="-280" y1="-80" x2="-20" y2="-230" stroke="#bae6fd" stroke-opacity="0.45" stroke-width="2.5" />
      <line x1="-210" y1="-60" x2="-20" y2="-170" stroke="#bae6fd" stroke-opacity="0.45" stroke-width="2.5" />
      <line x1="-140" y1="-40" x2="-20" y2="-110" stroke="#bae6fd" stroke-opacity="0.45" stroke-width="2.5" />
      <line x1="-70"  y1="-20" x2="-20" y2="-50"  stroke="#bae6fd" stroke-opacity="0.45" stroke-width="2.5" />
    </g>

    <!-- Cell 2: Top-Right (North-East - High Specular Light Angle) -->
    <g>
      <polygon points="10,-12 346,-96 10,-300 10,-12" fill="url(#waferHighlight)" stroke="#0284c7" stroke-width="2.5"/>
      <!-- Subtle internal shadow -->
      <polygon points="10,-12 180,-156 180,-10 10,-12" fill="#0369a1" opacity="0.4"/>
      <!-- Multi-Busbar Silver Micro-Fingers -->
      <line x1="280" y1="-80" x2="20" y2="-230" stroke="#ffffff" stroke-opacity="0.55" stroke-width="2.5" />
      <line x1="210" y1="-60" x2="20" y2="-170" stroke="#ffffff" stroke-opacity="0.55" stroke-width="2.5" />
      <line x1="140" y1="-40" x2="20" y2="-110" stroke="#ffffff" stroke-opacity="0.55" stroke-width="2.5" />
      <line x1="70"  y1="-20" x2="20" y2="-50"  stroke="#ffffff" stroke-opacity="0.55" stroke-width="2.5" />
    </g>

    <!-- Cell 3: Bottom-Right (South-East) -->
    <g>
      <polygon points="10,12 346,12 346,146 10,354" fill="url(#waferDeep)" stroke="#0369a1" stroke-width="2.5"/>
      <!-- Multi-Busbar Silver Micro-Fingers -->
      <line x1="280" y1="80" x2="20" y2="230" stroke="#38bdf8" stroke-opacity="0.4" stroke-width="2.5" />
      <line x1="210" y1="60" x2="20" y2="170" stroke="#38bdf8" stroke-opacity="0.4" stroke-width="2.5" />
      <line x1="140" y1="40" x2="20" y2="110" stroke="#38bdf8" stroke-opacity="0.4" stroke-width="2.5" />
    </g>

    <!-- Cell 4: Bottom-Left (South-West) -->
    <g>
      <polygon points="-10,12 -346,12 -346,146 -10,354" fill="url(#waferMain)" stroke="#0c4a6e" stroke-width="2.5"/>
      <!-- Multi-Busbar Silver Micro-Fingers -->
      <line x1="-280" y1="80" x2="-20" y2="230" stroke="#38bdf8" stroke-opacity="0.4" stroke-width="2.5" />
      <line x1="-210" y1="60" x2="-20" y2="170" stroke="#38bdf8" stroke-opacity="0.4" stroke-width="2.5" />
      <line x1="-140" y1="40" x2="-20" y2="110" stroke="#38bdf8" stroke-opacity="0.4" stroke-width="2.5" />
    </g>

    <!-- Central Cross Dividers (Module Silicon Isolation Gap) -->
    <line x1="0" y1="-308" x2="0" y2="366" stroke="#0f172a" stroke-width="12" stroke-linecap="round"/>
    <line x1="-354" y1="0" x2="354" y2="0" stroke="#0f172a" stroke-width="12" stroke-linecap="round"/>

    <!-- GOLDEN HIGH-EFFICIENCY DC CIRCUIT BUSBAR NETWORK -->
    <g filter="url(#goldGlow)">
      <!-- Main Vertical String Collector Busbar -->
      <path d="M 0 -310 L 0 -50 L -30 0 L 0 50 L 0 360" stroke="url(#goldBusbar)" stroke-width="14" stroke-linecap="round" stroke-linejoin="round" fill="none"/>
      
      <!-- Lateral Cell Interconnection Traces -->
      <path d="M -340 0 L -50 0 M 50 0 L 340 0" stroke="url(#goldBusbar)" stroke-width="10" stroke-linecap="round" fill="none"/>

      <!-- Peripheral Corner Terminals (Gold Plated PV Connectors) -->
      <circle cx="0" cy="-310" r="16" fill="#fef08a" stroke="#d97706" stroke-width="4" />
      <circle cx="0" cy="360" r="16" fill="#fef08a" stroke="#d97706" stroke-width="4" />
      <circle cx="-340" cy="0" r="14" fill="#fef08a" stroke="#d97706" stroke-width="4" />
      <circle cx="340" cy="0" r="14" fill="#fef08a" stroke="#d97706" stroke-width="4" />
    </g>

    <!-- DYNAMIC DC ENERGY VECTOR / HIGH-VOLTAGE POWER PULSE (Der blitzschnelle Energieimpuls) -->
    <g filter="url(#intenseGlow)">
      <!-- Electric Energy Lightning Silhouette -->
      <path d="M 50 -260 L -70 -30 L 70 30 L -30 290" 
            stroke="#ffffff" stroke-width="18" stroke-linecap="round" stroke-linejoin="round" fill="none" />
      <path d="M 50 -260 L -70 -30 L 70 30 L -30 290" 
            stroke="url(#energyPulse)" stroke-width="10" stroke-linecap="round" stroke-linejoin="round" fill="none" />
    </g>

    <!-- Central Micro-Inverter MPPT Nexus Core (Hexagonal Microchip / Reactor) -->
    <g filter="url(#goldGlow)">
      <!-- Outer Nexus Ring -->
      <polygon points="0,-48 42,-24 42,24 0,48 -42,24 -42,-24" fill="#0f172a" stroke="url(#goldBusbar)" stroke-width="6" stroke-linejoin="round"/>
      <!-- Inner Core Reactor -->
      <polygon points="0,-32 28,-16 28,16 0,32 -28,16 -28,-16" fill="#0284c7" stroke="#38bdf8" stroke-width="3" stroke-linejoin="round"/>
      <circle cx="0" cy="0" r="12" fill="#ffffff" />
      <circle cx="0" cy="0" r="6" fill="#f59e0b" />
    </g>

    <!-- High-Tech Engineering Precision Vernier Markings (Technical Ticks) -->
    <g stroke="#38bdf8" stroke-opacity="0.6" stroke-width="2">
      <!-- Top edge ticks -->
      <line x1="-120" y1="-230" x2="-115" y2="-220" />
      <line x1="-80"  y1="-260" x2="-75"  y2="-250" />
      <line x1="80"   y1="-260" x2="75"   y2="-250" />
      <line x1="120"  y1="-230" x2="115"  y2="-220" />
    </g>
  </g>

  <!-- SUBTLE TYPOGRAPHIC BADGE "PV PRO" (Aerospace Titanium Branding at bottom) -->
  <g transform="translate(512, 915)">
    <!-- Pill Capsule Container -->
    <rect x="-105" y="-22" width="210" height="44" rx="22" fill="#0b1329" fill-opacity="0.9" stroke="url(#goldBusbar)" stroke-width="2.5" />
    <!-- Text: PV PRO -->
    <text x="-4" y="8" font-family="'Plus Jakarta Sans', system-ui, sans-serif" font-weight="900" font-size="22" fill="#ffffff" letter-spacing="4" text-anchor="middle">PV<tspan fill="#f59e0b" font-weight="900">PRO</tspan></text>
  </g>
</svg>